<svg width="70" height="70" viewBox="0 0 70 70" fill="none" xmlns="http://www.w3.org/2000/svg">
<rect width="70" height="70" rx="35" fill="#E44233"/>
<path d="M42.2 26.4134L44.0533 25.9734C44.54 25.8534 44.9333 25.5 45.1133 25.0334C45.2933 24.5734 45.2333 24.0667 44.96 23.66C42.7467 20.46 37.74 17.9334 33.5133 19.4467C32.3067 19.8734 31.3333 20.8867 30.9067 22.16C30.0067 24.8534 30.38 28.1267 31.9333 31.4867C32.7255 30.7916 33.7305 30.3865 34.7833 30.3381C35.8361 30.2896 36.874 30.6006 37.7267 31.22C38.1667 30.2 38.7267 29.1667 39.2933 28.36C39.9733 27.3934 41.0067 26.7 42.2 26.4134ZM25.2733 39.5734C27.2267 39.5734 29.34 39.06 31.4867 38.0667C30.7916 37.2745 30.3865 36.2695 30.338 35.2168C30.2896 34.164 30.6006 33.126 31.22 32.2734C30.2 31.8334 29.1733 31.2734 28.3667 30.7067C27.4 30.0267 26.7067 28.9934 26.42 27.8L25.9733 25.9467C25.8533 25.46 25.5067 25.0667 25.0333 24.8867C24.58 24.7134 24.0667 24.7667 23.66 25.04C20.46 27.2534 17.94 32.26 19.4467 36.4867C19.8733 37.6934 20.8933 38.6667 22.1667 39.0934C23.1333 39.4134 24.18 39.5734 25.2733 39.5734ZM35 39.6667C33.98 39.6667 33.04 39.3334 32.2733 38.78C31.8333 39.7934 31.2733 40.8267 30.7067 41.6334C30.0267 42.6 28.9933 43.2934 27.8 43.5867L25.9467 44.0267C25.4667 44.1467 25.0667 44.4934 24.8867 44.9667C24.7133 45.42 24.7733 45.9334 25.0467 46.34C26.8067 48.8867 30.3333 51 33.8267 51C34.7267 51 35.6267 50.86 36.4933 50.5534C37.6933 50.1267 38.6667 49.1067 39.0933 47.8334C39.9933 45.1467 39.6267 41.8734 38.0733 38.5067C37.2233 39.2531 36.1312 39.6653 35 39.6667ZM47.84 30.9067C45.1467 30 41.8733 30.3734 38.5067 31.9334C39.2539 32.7802 39.6664 33.8707 39.6667 35C39.6667 36.02 39.3333 36.9534 38.78 37.7267C39.8 38.1667 40.8333 38.7267 41.64 39.2934C42.6067 39.9734 43.3 41.0067 43.5867 42.2L44.0267 44.0534C44.1467 44.5334 44.5 44.9334 44.9667 45.1134C45.14 45.18 45.32 45.2134 45.5067 45.2134C45.8 45.2134 46.0933 45.1267 46.34 44.9534C49.54 42.7467 52.0667 37.74 50.5533 33.5067C50.1267 32.3067 49.1133 31.3334 47.84 30.9067Z" fill="white"/>
<path d="M35 38.3334C36.8409 38.3334 38.3333 36.841 38.3333 35.0001C38.3333 33.1591 36.8409 31.6667 35 31.6667C33.159 31.6667 31.6666 33.1591 31.6666 35.0001C31.6666 36.841 33.159 38.3334 35 38.3334Z" fill="white"/>
</svg>
