<svg width="70" height="70" viewBox="0 0 70 70" fill="none" xmlns="http://www.w3.org/2000/svg">
<rect width="70" height="70" rx="35" fill="#FFB67F"/>
<path d="M41.6546 37.6292H28.3445C27.2009 37.6292 26.2708 38.5595 26.2708 39.7029V41.8389H43.7283V39.7029C43.7283 38.5595 42.7981 37.6292 41.6546 37.6292Z" fill="white"/>
<path d="M46.762 25H23.2375C21.0527 25 19.2754 26.7774 19.2754 28.9621V37.8768C19.2754 40.0615 21.0527 41.8389 23.2375 41.8389H24.4138V39.7029C24.4138 37.5354 26.1772 35.772 28.3447 35.772H41.6548C43.8224 35.772 45.5858 37.5354 45.5858 39.7029V41.8389H46.762C48.9467 41.8389 50.7241 40.0616 50.7241 37.8768V28.9621C50.7241 26.7774 48.9467 25 46.762 25ZM41.1902 30.386H40.0059C39.493 30.386 39.0773 29.9702 39.0773 29.4574C39.0773 28.9445 39.493 28.5288 40.0059 28.5288H41.1902C41.703 28.5288 42.1188 28.9445 42.1188 29.4574C42.1188 29.9702 41.703 30.386 41.1902 30.386ZM45.6475 30.386H44.4632C43.9503 30.386 43.5346 29.9702 43.5346 29.4574C43.5346 28.9445 43.9503 28.5288 44.4632 28.5288H45.6475C46.1603 28.5288 46.5761 28.9445 46.5761 29.4574C46.5761 29.9702 46.1603 30.386 45.6475 30.386ZM34.9997 42.7768C34.4869 42.7768 34.0711 43.1926 34.0711 43.7054V48.0712C34.0711 48.5841 34.4869 48.9998 34.9997 48.9998C35.5126 48.9998 35.9283 48.5841 35.9283 48.0712V43.7054C35.9283 43.1926 35.5126 42.7768 34.9997 42.7768ZM40.3855 47.1426C39.5234 47.1426 38.8222 46.4414 38.8222 45.5793V43.7054C38.8222 43.1926 38.4064 42.7768 37.8936 42.7768C37.3808 42.7768 36.965 43.1926 36.965 43.7054V45.5793C36.965 47.4654 38.4994 48.9999 40.3856 48.9999C40.8984 48.9999 41.3142 48.5841 41.3142 48.0713C41.3141 47.5584 40.8983 47.1426 40.3855 47.1426ZM32.1059 42.7768C31.5931 42.7768 31.1773 43.1926 31.1773 43.7054V45.5793C31.1773 46.4413 30.476 47.1426 29.614 47.1426C29.1011 47.1426 28.6854 47.5584 28.6854 48.0712C28.6854 48.5841 29.1011 48.9998 29.614 48.9998C31.5001 48.9998 33.0346 47.4654 33.0346 45.5792V43.7053C33.0346 43.1926 32.6188 42.7768 32.1059 42.7768Z" fill="white"/>
</svg>
