<svg width="70" height="70" viewBox="0 0 70 70" fill="none" xmlns="http://www.w3.org/2000/svg">
<rect width="70" height="70" rx="35" fill="#0B85D0"/>
<path d="M31.7389 45.2053C31.7389 48.9551 34.7793 52.0001 38.5337 52.0001C42.2881 52.0001 45.3331 48.9551 45.3331 45.2053C45.3331 41.4509 38.5337 33.0759 38.5337 33.0759C38.5337 33.0759 31.7389 41.4509 31.7389 45.2053ZM42.2363 45.2053C42.2363 44.92 42.4672 44.6892 42.7524 44.6892C43.0377 44.6892 43.2685 44.92 43.2685 45.2053C43.2685 47.8137 41.1445 49.9357 38.5337 49.9357C38.2484 49.9357 38.0175 49.7048 38.0175 49.4196C38.0175 49.1343 38.2484 48.9035 38.5337 48.9035C40.5755 48.9034 42.2363 47.2446 42.2363 45.2053ZM27.7664 25.4666C27.7664 25.4666 22.667 31.7518 22.667 34.5694C22.667 37.3836 24.9487 39.6688 27.7664 39.6688C30.584 39.6688 32.8692 37.3836 32.8692 34.5694C32.8692 31.7518 27.7664 25.4666 27.7664 25.4666ZM41.6761 30.1782C43.6954 30.1782 45.3331 28.5405 45.3331 26.5237C45.3331 24.5044 41.6761 20 41.6761 20C41.6761 20 38.0216 24.5044 38.0216 26.5237C38.0216 28.5404 39.6568 30.1782 41.6761 30.1782Z" fill="white"/>
</svg>
