<svg width="70" height="70" viewBox="0 0 70 70" fill="none" xmlns="http://www.w3.org/2000/svg">
<rect width="70" height="70" rx="35" fill="#43C16D"/>
<path d="M24.4747 41.3576C23.9449 41.3576 23.427 41.5147 22.9864 41.8091C22.5459 42.1034 22.2026 42.5218 21.9998 43.0113C21.7971 43.5008 21.744 44.0394 21.8474 44.559C21.9507 45.0787 22.2059 45.556 22.5805 45.9306C22.9551 46.3052 23.4324 46.5604 23.9521 46.6637C24.4717 46.7671 25.0103 46.714 25.4998 46.5113C25.9893 46.3085 26.4076 45.9652 26.702 45.5247C26.9963 45.0841 27.1535 44.5662 27.1535 44.0364C27.1526 43.3262 26.8701 42.6454 26.3679 42.1432C25.8657 41.641 25.1849 41.3585 24.4747 41.3576ZM26.6177 22.6062C25.9819 22.6062 25.3604 22.7947 24.8318 23.1479C24.3032 23.5012 23.8912 24.0032 23.6479 24.5906C23.4046 25.178 23.3409 25.8243 23.4649 26.4479C23.589 27.0714 23.8951 27.6442 24.3447 28.0938C24.7942 28.5433 25.367 28.8495 25.9906 28.9735C26.6141 29.0975 27.2605 29.0339 27.8478 28.7906C28.4352 28.5473 28.9373 28.1353 29.2905 27.6066C29.6437 27.078 29.8322 26.4565 29.8322 25.8207C29.8314 24.9684 29.4924 24.1513 28.8898 23.5487C28.2871 22.946 27.47 22.6071 26.6177 22.6062ZM22.3317 33.8571H22.943C22.9931 34.0489 23.0698 34.2328 23.1706 34.4035L22.7372 34.837C22.6861 34.8864 22.6452 34.9455 22.6172 35.0109C22.5891 35.0762 22.5743 35.1465 22.5737 35.2177C22.5731 35.2888 22.5866 35.3594 22.6136 35.4252C22.6405 35.491 22.6803 35.5509 22.7306 35.6012C22.7809 35.6515 22.8407 35.6912 22.9065 35.7182C22.9724 35.7451 23.0429 35.7587 23.1141 35.7581C23.1852 35.7574 23.2555 35.7427 23.3209 35.7146C23.3862 35.6865 23.4454 35.6457 23.4948 35.5945L23.9282 35.1611C24.0989 35.262 24.2828 35.3386 24.4747 35.3888V36.0001C24.4747 36.1422 24.5311 36.2784 24.6316 36.3789C24.7321 36.4794 24.8683 36.5358 25.0104 36.5358C25.1525 36.5358 25.2888 36.4794 25.3893 36.3789C25.4897 36.2784 25.5462 36.1422 25.5462 36.0001V35.3888C25.738 35.3386 25.9219 35.262 26.0927 35.1611L26.5261 35.5945C26.5755 35.6457 26.6346 35.6865 26.7 35.7146C26.7654 35.7427 26.8357 35.7574 26.9068 35.7581C26.9779 35.7587 27.0485 35.7451 27.1143 35.7182C27.1802 35.6912 27.24 35.6515 27.2903 35.6012C27.3406 35.5509 27.3804 35.491 27.4073 35.4252C27.4342 35.3594 27.4478 35.2888 27.4472 35.2177C27.4466 35.1465 27.4318 35.0762 27.4037 35.0109C27.3756 34.9455 27.3348 34.8864 27.2836 34.837L26.8502 34.4035C26.9511 34.2328 27.0277 34.0489 27.0779 33.8571H27.6892C27.8313 33.8571 27.9676 33.8006 28.068 33.7001C28.1685 33.5997 28.225 33.4634 28.225 33.3213C28.225 33.1792 28.1685 33.0429 28.068 32.9425C27.9676 32.842 27.8313 32.7856 27.6892 32.7856H27.0779C27.0277 32.5937 26.9511 32.4098 26.8502 32.2391L27.2836 31.8057C27.3348 31.7562 27.3756 31.6971 27.4037 31.6318C27.4318 31.5664 27.4466 31.4961 27.4472 31.4249C27.4478 31.3538 27.4342 31.2833 27.4073 31.2174C27.3804 31.1516 27.3406 31.0918 27.2903 31.0415C27.24 30.9912 27.1802 30.9514 27.1143 30.9244C27.0485 30.8975 26.9779 30.8839 26.9068 30.8846C26.8357 30.8852 26.7654 30.9 26.7 30.928C26.6346 30.9561 26.5755 30.9969 26.5261 31.0481L26.0927 31.4815C25.9219 31.3807 25.738 31.304 25.5462 31.2538V30.6425C25.5462 30.5004 25.4897 30.3642 25.3893 30.2637C25.2888 30.1632 25.1525 30.1068 25.0104 30.1068C24.8683 30.1068 24.7321 30.1632 24.6316 30.2637C24.5311 30.3642 24.4747 30.5004 24.4747 30.6425V31.2538C24.2828 31.304 24.0989 31.3807 23.9282 31.4815L23.4948 31.0481C23.4454 30.9969 23.3862 30.9561 23.3209 30.928C23.2555 30.9 23.1852 30.8852 23.1141 30.8846C23.0429 30.8839 22.9724 30.8975 22.9065 30.9244C22.8407 30.9514 22.7809 30.9912 22.7306 31.0415C22.6803 31.0918 22.6405 31.1516 22.6136 31.2174C22.5866 31.2833 22.5731 31.3538 22.5737 31.4249C22.5743 31.4961 22.5891 31.5664 22.6172 31.6318C22.6452 31.6971 22.6861 31.7562 22.7372 31.8057L23.1706 32.2391C23.0698 32.4098 22.9931 32.5937 22.943 32.7856H22.3317C22.1896 32.7856 22.0533 32.842 21.9528 32.9425C21.8523 33.0429 21.7959 33.1792 21.7959 33.3213C21.7959 33.4634 21.8523 33.5997 21.9528 33.7001C22.0533 33.8006 22.1896 33.8571 22.3317 33.8571ZM26.0819 38.6789C26.0819 38.9967 26.1762 39.3075 26.3528 39.5718C26.5294 39.8361 26.7804 40.0421 27.0741 40.1638C27.3678 40.2854 27.691 40.3173 28.0028 40.2552C28.3145 40.1932 28.6009 40.0402 28.8257 39.8154C29.0505 39.5906 29.2036 39.3042 29.2656 38.9924C29.3276 38.6806 29.2958 38.3575 29.1741 38.0638C29.0525 37.7701 28.8465 37.5191 28.5822 37.3425C28.3178 37.1659 28.0071 37.0716 27.6892 37.0716C27.2629 37.0716 26.8541 37.2409 26.5527 37.5424C26.2513 37.8438 26.0819 38.2526 26.0819 38.6789ZM28.225 46.1794C27.9071 46.1794 27.5963 46.2737 27.332 46.4503C27.0677 46.6269 26.8617 46.8779 26.74 47.1716C26.6184 47.4653 26.5866 47.7885 26.6486 48.1003C26.7106 48.412 26.8637 48.6984 27.0885 48.9232C27.3132 49.148 27.5996 49.3011 27.9114 49.3631C28.2232 49.4251 28.5463 49.3933 28.84 49.2716C29.1337 49.15 29.3847 48.944 29.5614 48.6797C29.738 48.4153 29.8322 48.1046 29.8322 47.7867C29.8322 47.3604 29.6629 46.9516 29.3615 46.6502C29.0601 46.3488 28.6512 46.1794 28.225 46.1794ZM37.8686 27.428V28.4995C37.8686 28.6416 37.925 28.7779 38.0255 28.8783C38.126 28.9788 38.2622 29.0353 38.4043 29.0353H44.2976C44.4397 29.0353 44.576 29.0917 44.6765 29.1922C44.7769 29.2927 44.8334 29.4289 44.8334 29.571V30.589C44.8334 30.6903 44.8621 30.7896 44.9163 30.8752C44.9704 30.9609 45.0478 31.0295 45.1393 31.0729C45.2309 31.1164 45.3329 31.133 45.4335 31.1209C45.5341 31.1087 45.6292 31.0682 45.7077 31.0042L48.9223 28.379C48.9835 28.3287 49.0328 28.2655 49.0667 28.1939C49.1006 28.1223 49.1181 28.044 49.1181 27.9648C49.1181 27.8856 49.1006 27.8074 49.0667 27.7358C49.0328 27.6642 48.9835 27.6009 48.9223 27.5507L45.7077 24.9282C45.6292 24.8641 45.5342 24.8237 45.4336 24.8115C45.333 24.7993 45.2311 24.8159 45.1396 24.8593C45.048 24.9027 44.9707 24.9712 44.9165 25.0568C44.8623 25.1423 44.8335 25.2415 44.8334 25.3428V26.3565C44.8334 26.4986 44.7769 26.6349 44.6765 26.7353C44.576 26.8358 44.4397 26.8922 44.2976 26.8922H38.4043C38.2622 26.8922 38.126 26.9487 38.0255 27.0492C37.925 27.1496 37.8686 27.2859 37.8686 27.428Z" fill="white"/>
<path d="M36.7973 44.5722V43.5007C36.7973 43.0744 36.9667 42.6656 37.2681 42.3642C37.5695 42.0627 37.9783 41.8934 38.4046 41.8934H41.6191V38.1431H38.4046C37.9783 38.1431 37.5695 37.9738 37.2681 37.6724C36.9667 37.3709 36.7973 36.9621 36.7973 36.5359V35.4643C36.7973 35.0381 36.9667 34.6293 37.2681 34.3278C37.5695 34.0264 37.9783 33.8571 38.4046 33.8571H41.6191V30.1068H38.4046C37.9783 30.1068 37.5695 29.9375 37.2681 29.636C36.9667 29.3346 36.7973 28.9258 36.7973 28.4995V27.428C36.7973 27.0017 36.9667 26.5929 37.2681 26.2915C37.5695 25.9901 37.9783 25.8207 38.4046 25.8207H41.6191V24.6957C41.6189 24.4736 41.5497 24.2571 41.4211 24.0761C41.2925 23.8951 41.1108 23.7585 40.9012 23.6852L33.4006 21.06C33.2392 21.0036 33.0666 20.9866 32.8973 21.0105C32.7279 21.0344 32.5668 21.0985 32.4273 21.1974C32.2878 21.2963 32.174 21.4272 32.0954 21.5791C32.0168 21.731 31.9757 21.8994 31.9755 22.0705V49.9297C31.9757 50.1008 32.0168 50.2694 32.0954 50.4213C32.174 50.5732 32.2879 50.7042 32.4274 50.8031C32.567 50.902 32.7282 50.9661 32.8976 50.9899C33.0671 51.0138 33.2397 50.9967 33.4012 50.9402L40.9017 48.315C41.1113 48.2416 41.2928 48.105 41.4213 47.924C41.5498 47.743 41.6189 47.5265 41.6191 47.3045V46.1795H38.4046C37.9783 46.1795 37.5695 46.0101 37.2681 45.7087C36.9667 45.4073 36.7973 44.9985 36.7973 44.5722Z" fill="white"/>
<path d="M52.6732 35.5858L49.4587 32.9632C49.3802 32.8989 49.2851 32.8582 49.1843 32.8458C49.0836 32.8334 48.9814 32.8499 48.8897 32.8934C48.798 32.9368 48.7205 33.0054 48.6662 33.0912C48.612 33.177 48.5832 33.2764 48.5833 33.3779V34.3926C48.5833 34.5347 48.5268 34.671 48.4264 34.7715C48.3259 34.8719 48.1896 34.9284 48.0475 34.9284H38.4039C38.2618 34.9284 38.1256 34.9848 38.0251 35.0853C37.9246 35.1858 37.8682 35.322 37.8682 35.4641V36.5357C37.8682 36.6777 37.9246 36.814 38.0251 36.9145C38.1256 37.015 38.2618 37.0714 38.4039 37.0714H48.0475C48.1896 37.0714 48.3259 37.1279 48.4264 37.2283C48.5268 37.3288 48.5833 37.4651 48.5833 37.6072V38.6219C48.5833 38.7232 48.612 38.8225 48.6662 38.9082C48.7203 38.9938 48.7977 39.0624 48.8892 39.1059C48.9808 39.1493 49.0828 39.1659 49.1834 39.1538C49.284 39.1416 49.3791 39.1011 49.4576 39.0371L52.6722 36.4119C52.7334 36.3616 52.7827 36.2984 52.8166 36.2268C52.8505 36.1552 52.868 36.077 52.868 35.9978C52.868 35.9185 52.8505 35.8403 52.8166 35.7687C52.7827 35.6971 52.7334 35.6339 52.6722 35.5836L52.6732 35.5858ZM44.833 41.4153V42.429C44.833 42.5711 44.7765 42.7073 44.6761 42.8078C44.5756 42.9083 44.4393 42.9647 44.2972 42.9647H38.4039C38.2618 42.9647 38.1256 43.0212 38.0251 43.1216C37.9246 43.2221 37.8682 43.3584 37.8682 43.5005V44.572C37.8682 44.7141 37.9246 44.8503 38.0251 44.9508C38.1256 45.0513 38.2618 45.1077 38.4039 45.1077H44.2972C44.4393 45.1077 44.5756 45.1642 44.6761 45.2647C44.7765 45.3651 44.833 45.5014 44.833 45.6435V46.6614C44.833 46.7628 44.8617 46.862 44.9159 46.9477C44.97 47.0334 45.0474 47.1019 45.1389 47.1454C45.2305 47.1889 45.3325 47.2055 45.4331 47.1933C45.5337 47.1811 45.6288 47.1407 45.7073 47.0766L48.9219 44.4514C48.9831 44.4012 49.0324 44.338 49.0663 44.2664C49.1002 44.1947 49.1177 44.1165 49.1177 44.0373C49.1177 43.9581 49.1002 43.8798 49.0663 43.8082C49.0324 43.7366 48.9831 43.6734 48.9219 43.6232L45.7073 41.0006C45.6288 40.9366 45.5338 40.8962 45.4332 40.884C45.3327 40.8718 45.2307 40.8883 45.1392 40.9318C45.0476 40.9752 44.9703 41.0436 44.9161 41.1292C44.8619 41.2148 44.8331 41.314 44.833 41.4153Z" fill="white"/>
</svg>
