<svg width="26" height="26" viewBox="0 0 26 26" fill="none" xmlns="http://www.w3.org/2000/svg">
<path d="M25.1463 3.57405C25.8976 2.82278 25.8976 1.60473 25.1463 0.853461C24.3951 0.102189 23.177 0.10219 22.4258 0.853462L13.0001 10.2791L3.57454 0.853461C2.82327 0.10219 1.60522 0.10219 0.853949 0.853461C0.102678 1.60473 0.102678 2.82278 0.85395 3.57406L10.2796 12.9997L0.853949 22.4253C0.102678 23.1765 0.102678 24.3946 0.853949 25.1459C1.60522 25.8971 2.82327 25.8971 3.57454 25.1459L13.0001 15.7203L22.4258 25.1459C23.177 25.8971 24.3951 25.8971 25.1463 25.1459C25.8976 24.3946 25.8976 23.1765 25.1463 22.4253L15.7207 12.9997L25.1463 3.57405Z" fill="#828282"/>
</svg>
