<svg width="56" height="56" viewBox="0 0 56 56" fill="none" xmlns="http://www.w3.org/2000/svg">
<rect width="56" height="56" rx="28" fill="white" fill-opacity="0.5"/>
<circle cx="28" cy="26.25" r="7" fill="white"/>
<path d="M38.2638 37.119L33.9014 32.7659C35.4411 30.9326 36.2136 28.5756 36.0579 26.1864C35.9022 23.7972 34.8304 21.5604 33.0659 19.9424C31.3014 18.3244 28.9805 17.4503 26.5873 17.5022C24.1941 17.5541 21.9133 18.5282 20.2206 20.2211C18.528 21.9141 17.5541 24.1954 17.5022 26.589C17.4503 28.9827 18.3243 31.304 19.9419 33.0689C21.5596 34.8337 23.796 35.9058 26.1847 36.0615C28.5734 36.2172 30.93 35.4445 32.763 33.9046L37.1152 38.2677C37.2693 38.4167 37.4752 38.5 37.6895 38.5C37.9038 38.5 38.1097 38.4167 38.2638 38.2677C38.4151 38.1149 38.5 37.9085 38.5 37.6934C38.5 37.4783 38.4151 37.2718 38.2638 37.119ZM30.0328 27.6168H27.6149V30.0352C27.6149 30.249 27.53 30.454 27.3788 30.6052C27.2277 30.7564 27.0227 30.8413 26.8089 30.8413C26.5952 30.8413 26.3902 30.7564 26.239 30.6052C26.0879 30.454 26.003 30.249 26.003 30.0352V27.6168H23.5851C23.3713 27.6168 23.1663 27.5319 23.0152 27.3807C22.864 27.2296 22.7791 27.0245 22.7791 26.8107C22.7791 26.5969 22.864 26.3919 23.0152 26.2407C23.1663 26.0895 23.3713 26.0046 23.5851 26.0046H26.003V23.5862C26.003 23.3724 26.0879 23.1674 26.239 23.0162C26.3902 22.865 26.5952 22.7801 26.8089 22.7801C27.0227 22.7801 27.2277 22.865 27.3788 23.0162C27.53 23.1674 27.6149 23.3724 27.6149 23.5862V26.0046H30.0328C30.2466 26.0046 30.4516 26.0895 30.6027 26.2407C30.7539 26.3919 30.8388 26.5969 30.8388 26.8107C30.8388 27.0245 30.7539 27.2296 30.6027 27.3807C30.4516 27.5319 30.2466 27.6168 30.0328 27.6168Z" fill="#ADADAD"/>
</svg>
