<svg width="12" height="12" viewBox="0 0 12 12" fill="none" xmlns="http://www.w3.org/2000/svg">
<path d="M11.6569 10.7858L6.87042 5.99939L11.657 1.21282C11.7724 1.09741 11.8372 0.940887 11.8372 0.777679C11.8372 0.61447 11.7724 0.457947 11.657 0.342543C11.5416 0.227139 11.3851 0.162307 11.2219 0.162309C11.0587 0.162311 10.9021 0.227147 10.7867 0.342554L6.00015 5.12912L1.2137 0.342676C1.0983 0.227271 0.941779 0.162439 0.778571 0.162441C0.615363 0.162443 0.458838 0.227279 0.343431 0.342686C0.28473 0.397093 0.238374 0.463449 0.207485 0.537284C0.176596 0.611119 0.161892 0.690717 0.164366 0.770713C0.166839 0.85071 0.186432 0.929246 0.221822 1.00103C0.257213 1.07282 0.307579 1.13618 0.369528 1.18685L5.15598 5.9733L0.343299 10.786C0.227892 10.9014 0.163055 11.0579 0.163053 11.2211C0.163051 11.3843 0.227884 11.5408 0.343288 11.6563C0.458692 11.7717 0.615214 11.8365 0.778422 11.8365C0.94163 11.8365 1.09816 11.7716 1.21356 11.6562L6.00013 6.86967L10.7866 11.6561C10.902 11.7715 11.0585 11.8364 11.2217 11.8364C11.3849 11.8364 11.5414 11.7715 11.6569 11.6561C11.7723 11.5407 11.8371 11.3842 11.8371 11.221C11.8371 11.0578 11.7723 10.9012 11.6569 10.7858Z" fill="#43C16D"/>
</svg>
