<svg width="70" height="70" viewBox="0 0 70 70" fill="none" xmlns="http://www.w3.org/2000/svg">
<rect width="70" height="70" rx="35" fill="#0B85D0"/>
<path d="M41.9292 22.8374C42.1309 22.4416 42.4091 22.0897 42.7475 21.8019C43.0859 21.5141 43.478 21.2962 43.901 21.1606C44.3241 21.025 44.7698 20.9745 45.2125 21.012C45.6551 21.0495 46.086 21.1742 46.4802 21.379C46.8745 21.5838 47.2243 21.8646 47.5095 22.2052C47.7947 22.5458 48.0097 22.9395 48.1421 23.3636C48.2744 23.7876 48.3215 24.2337 48.2807 24.6761C48.2398 25.1185 48.1118 25.5484 47.9041 25.941L44.4469 32.5793C44.3103 32.8418 44.1394 33.085 43.9389 33.3026C44.8837 34.7013 45.1764 36.5003 44.5778 38.203C44.4364 38.6057 44.2931 39.0078 44.148 39.4092C44.133 39.4507 44.1092 39.4885 44.0784 39.5201C44.0475 39.5517 44.0102 39.5763 43.9691 39.5923C43.9279 39.6082 43.8838 39.6152 43.8397 39.6126C43.7956 39.6101 43.7526 39.5982 43.7135 39.5776L32.5575 33.7475C32.5154 33.7254 32.4789 33.6939 32.4509 33.6554C32.4228 33.617 32.4039 33.5726 32.3956 33.5258C32.3873 33.4789 32.3898 33.4308 32.403 33.3851C32.4162 33.3393 32.4396 33.2972 32.4715 33.2619C32.7492 32.9541 33.0195 32.6455 33.2789 32.3419C34.4994 30.9134 36.3078 30.1057 38.1339 30.1657C38.1549 30.1231 38.1765 30.0805 38.1998 30.0383L41.9292 22.8374ZM30.9218 35.1648C30.8645 35.135 30.7994 35.1237 30.7354 35.1324C30.6714 35.1411 30.6117 35.1695 30.5644 35.2136C29.8779 35.8517 29.1925 36.4089 28.5536 36.8051C26.3952 38.1441 24.6108 38.627 23.5026 38.7981C23.196 38.8449 22.9056 38.9657 22.6563 39.1501C22.407 39.3345 22.2065 39.577 22.0722 39.8564C21.805 40.4218 21.8247 41.1622 22.3452 41.7356C22.9183 42.3668 23.7671 43.2028 24.9915 44.2085C25.027 44.2375 25.0685 44.2583 25.113 44.2694C25.1576 44.2804 25.204 44.2814 25.249 44.2724C26.1055 44.1 26.9973 43.9374 27.7756 43.5308C28.0018 43.4123 28.341 43.2017 28.7662 42.8365C29.1898 42.4733 29.8341 42.5124 30.2059 42.9236C30.294 43.0208 30.3617 43.1347 30.4048 43.2586C30.4479 43.3825 30.4656 43.5138 30.4568 43.6447C30.4481 43.7756 30.413 43.9034 30.3537 44.0204C30.2944 44.1374 30.2121 44.2413 30.1118 44.3258C29.5743 44.7866 29.1065 45.0867 28.7359 45.2807C28.4327 45.4391 28.1152 45.5707 27.7911 45.6834C27.5448 45.7686 27.4871 46.1001 27.7009 46.2492C28.3177 46.679 28.9904 47.1278 29.7234 47.594C30.088 47.8257 30.4572 48.0501 30.8308 48.267C30.9338 48.327 31.0632 48.3216 31.16 48.2519C31.6306 47.9169 32.0787 47.5514 32.5013 47.1576C33.3323 46.3781 34.0491 45.5196 34.6288 44.5314C34.9114 44.0513 35.5318 43.8816 36.015 44.1539C36.4983 44.4261 36.6617 45.036 36.379 45.5169C35.7006 46.6732 34.8611 47.6854 33.8872 48.5988C33.7188 48.7568 33.5356 48.9202 33.3385 49.0868C33.1643 49.2339 33.1953 49.5146 33.402 49.6111C34.3739 50.0674 35.3702 50.4698 36.3864 50.8165C37.4218 51.1665 38.5289 50.7662 39.1229 49.8763C39.8741 48.7514 41.1938 46.6294 42.3264 44.0474C42.6207 43.3775 42.9197 42.6472 43.2128 41.8983C43.2404 41.8274 43.2409 41.7488 43.2142 41.6775C43.1875 41.6063 43.1354 41.5474 43.068 41.5122L30.9218 35.1648ZM25.2122 32.4217C25.4057 32.4248 25.5979 32.3894 25.7777 32.3175C25.9574 32.2457 26.121 32.1387 26.259 32.003C26.3969 31.8672 26.5065 31.7054 26.5813 31.5269C26.6561 31.3484 26.6946 31.1567 26.6946 30.9632C26.6946 30.7696 26.6561 30.578 26.5813 30.3995C26.5065 30.221 26.3969 30.0591 26.259 29.9234C26.121 29.7876 25.9574 29.6807 25.7777 29.6088C25.5979 29.5369 25.4057 29.5015 25.2122 29.5047C24.8295 29.5109 24.4646 29.6673 24.1961 29.9402C23.9277 30.213 23.7773 30.5804 23.7773 30.9632C23.7773 31.3459 23.9277 31.7133 24.1961 31.9862C24.4646 32.259 24.8295 32.4154 25.2122 32.4217ZM21.2416 36.905C21.4351 36.9081 21.6273 36.8727 21.807 36.8009C21.9867 36.729 22.1504 36.622 22.2883 36.4863C22.4263 36.3506 22.5359 36.1887 22.6107 36.0102C22.6855 35.8317 22.724 35.64 22.724 35.4465C22.724 35.2529 22.6855 35.0613 22.6107 34.8828C22.5359 34.7043 22.4263 34.5424 22.2883 34.4067C22.1504 34.2709 21.9867 34.164 21.807 34.0921C21.6273 34.0202 21.4351 33.9848 21.2416 33.988C20.8589 33.9942 20.4939 34.1506 20.2255 34.4235C19.9571 34.6963 19.8066 35.0637 19.8066 35.4465C19.8066 35.8292 19.9571 36.1967 20.2255 36.4695C20.4939 36.7423 20.8589 36.8987 21.2416 36.905Z" fill="white"/>
</svg>
