<svg width="70" height="70" viewBox="0 0 70 70" fill="none" xmlns="http://www.w3.org/2000/svg">
<rect width="70" height="70" rx="35" fill="#0B85D0"/>
<path d="M38.3358 21C32.4558 21 27.6717 25.7841 27.6717 31.664C27.6717 37.544 32.4558 42.3281 38.3358 42.3281C44.2158 42.3281 48.9998 37.544 48.9998 31.664C48.9998 25.7841 44.2158 21 38.3358 21ZM38.3358 39.0468C34.2648 39.0468 30.953 35.735 30.953 31.664C30.953 27.5931 34.2648 24.2812 38.3358 24.2812C42.4067 24.2812 45.7186 27.5931 45.7186 31.664C45.7186 35.735 42.4067 39.0468 38.3358 39.0468ZM38.3358 25.9219C35.1694 25.9219 32.5936 28.4976 32.5936 31.664C32.5936 34.8304 35.1694 37.4062 38.3358 37.4062C41.5022 37.4062 44.078 34.8304 44.078 31.664C44.078 28.4976 41.5022 25.9219 38.3358 25.9219ZM41.617 32.4844H38.3358C37.883 32.4844 37.5155 32.1169 37.5155 31.664V28.3828C37.5155 27.93 37.883 27.5625 38.3358 27.5625C38.7886 27.5625 39.1561 27.93 39.1561 28.3828V30.8437H41.617C42.0698 30.8437 42.4373 31.2112 42.4373 31.664C42.4373 32.1169 42.0698 32.4844 41.617 32.4844ZM31.297 41.7517C30.7091 42.4861 30.3383 43.0538 29.9544 43.6406C29.168 44.8432 28.3548 46.0868 25.6817 48.7599C25.3612 49.0803 24.8417 49.0798 24.5212 48.7599L21.2399 45.4786C20.92 45.1582 20.92 44.6386 21.2399 44.3182C23.9131 41.645 25.1567 40.8318 26.3592 40.0454C26.946 39.6615 27.5137 39.2908 28.2481 38.7029C29.0786 39.8893 30.1105 40.9212 31.297 41.7517Z" fill="white"/>
</svg>
