<svg width="70" height="70" viewBox="0 0 70 70" fill="none" xmlns="http://www.w3.org/2000/svg">
<rect width="70" height="70" rx="35" fill="#FFB67F"/>
<path d="M43.6788 24.0938C43.1136 24.0938 42.6553 24.552 42.6553 25.1173C42.6553 25.6826 43.1136 26.1409 43.6788 26.1409C44.2432 26.1409 44.7024 26.6001 44.7024 27.1645C44.7024 27.7298 45.1607 28.1881 45.726 28.1881C46.2913 28.1881 46.7496 27.7298 46.7496 27.1645C46.7496 25.4713 45.372 24.0938 43.6788 24.0938Z" fill="white"/>
<path d="M43.6788 20C43.1136 20 42.6553 20.4583 42.6553 21.0236C42.6553 21.5889 43.1136 22.0472 43.6788 22.0472C46.5008 22.0472 48.7967 24.343 48.7967 27.165C48.7967 27.7303 49.255 28.1886 49.8203 28.1886C50.3856 28.1886 50.8439 27.7303 50.8439 27.165C50.8439 23.2142 47.6296 20 43.6788 20Z" fill="white"/>
<path d="M30.9801 28.7655L22.2948 37.4508C19.2351 40.5105 19.2351 45.489 22.2948 48.5487C23.8246 50.0785 25.8342 50.8434 27.8438 50.8434C29.8533 50.8434 31.8629 50.0785 33.3927 48.5487L42.078 39.8634C45.1377 36.8037 45.1377 31.8252 42.078 28.7655C39.0184 25.7058 34.0398 25.7058 30.9801 28.7655ZM27.6025 47.5837C27.2027 47.9834 26.5547 47.9834 26.1549 47.5837L23.2598 44.6886C22.86 44.2889 22.86 43.6408 23.2598 43.2411C23.6595 42.8413 24.3076 42.8413 24.7073 43.2411L27.6024 46.1361C28.0022 46.5359 28.0022 47.1839 27.6025 47.5837ZM32.4277 42.7585C31.2304 43.9558 29.2823 43.9558 28.085 42.7585C26.8877 41.5612 26.8877 39.6131 28.085 38.4158C29.2823 37.2185 31.2304 37.2185 32.4277 38.4158C33.625 39.6132 33.625 41.5612 32.4277 42.7585ZM39.6654 35.0382C40.0652 35.4379 40.0652 36.086 39.6654 36.4857C39.2657 36.8855 38.6176 36.8855 38.2179 36.4857L37.0116 35.2794L35.8053 36.4857C35.4055 36.8855 34.7575 36.8855 34.3577 36.4857C33.958 36.086 33.958 35.4379 34.3577 35.0382L35.564 33.8319L34.3577 32.6256C33.958 32.2258 33.958 31.5778 34.3577 31.178C34.7575 30.7783 35.4055 30.7783 35.8053 31.178L37.0116 32.3843L38.2179 31.178C38.6176 30.7783 39.2657 30.7783 39.6654 31.178C40.0652 31.5778 40.0652 32.2258 39.6654 32.6256L38.4591 33.8319L39.6654 35.0382Z" fill="white"/>
</svg>
