<svg width="70" height="70" viewBox="0 0 70 70" fill="none" xmlns="http://www.w3.org/2000/svg">
<rect width="70" height="70" rx="35" fill="#FFB67F"/>
<path d="M46.0007 32.0004H42.2504V27H24.7488C23.3674 27 22.2485 28.1188 22.2485 29.5003V43.2516H24.7488C24.7488 45.3205 26.4302 47.0019 28.4991 47.0019C30.5681 47.0019 32.2495 45.3205 32.2495 43.2516H39.7502C39.7502 45.3205 41.4316 47.0019 43.5006 47.0019C45.5695 47.0019 47.2509 45.3205 47.2509 43.2516H49.7512V37.001L46.0007 32.0004ZM28.4991 45.1267C27.4615 45.1267 26.624 44.2891 26.624 43.2515C26.624 42.2139 27.4615 41.3763 28.4991 41.3763C29.5368 41.3763 30.3743 42.2139 30.3743 43.2515C30.3743 44.2891 29.5367 45.1267 28.4991 45.1267ZM43.5006 45.1267C42.4629 45.1267 41.6254 44.2891 41.6254 43.2515C41.6254 42.2139 42.4629 41.3763 43.5006 41.3763C44.5382 41.3763 45.3757 42.2139 45.3757 43.2515C45.3757 44.2891 44.5381 45.1267 43.5006 45.1267ZM42.2504 37.001V33.8757H45.3757L47.8321 37.001H42.2504Z" fill="white"/>
</svg>
