<svg width="70" height="70" viewBox="0 0 70 70" fill="none" xmlns="http://www.w3.org/2000/svg">
<rect width="70" height="70" rx="35" fill="#E44233"/>
<path d="M47.9961 22H30.418C29.9322 22 29.5391 22.3932 29.5391 22.8789V23.7578H40.9648C41.4508 23.7578 41.8438 24.151 41.8438 24.6367V25.5156H44.4805C44.9664 25.5156 45.3594 25.9088 45.3594 26.3945C45.3594 26.8803 44.9664 27.2734 44.4805 27.2734H41.8438V29.0313H44.4805C44.9664 29.0313 45.3594 29.4244 45.3594 29.9102C45.3594 30.3959 44.9664 30.7891 44.4805 30.7891H41.8438V32.5469H44.4805C44.9664 32.5469 45.3594 32.94 45.3594 33.4258C45.3594 33.9115 44.9664 34.3047 44.4805 34.3047H41.8438V36.0625H44.4805C44.9664 36.0625 45.3594 36.4557 45.3594 36.9414C45.3594 37.4272 44.9664 37.8203 44.4805 37.8203H41.8438V39.5781H44.4805C44.9664 39.5781 45.3594 39.9713 45.3594 40.457C45.3594 40.9428 44.9664 41.3359 44.4805 41.3359H41.8438V44.8516H47.9961C48.482 44.8516 48.875 44.4584 48.875 43.9727V22.8789C48.875 22.3932 48.482 22 47.9961 22ZM31.2969 37.8203C29.358 37.8203 27.7812 39.3971 27.7812 41.3359C27.7812 43.2748 29.358 44.8516 31.2969 44.8516C33.2357 44.8516 34.8125 43.2748 34.8125 41.3359C34.8125 39.3971 33.2357 37.8203 31.2969 37.8203ZM31.2969 43.0938C30.3277 43.0938 29.5391 42.3051 29.5391 41.3359C29.5391 40.3668 30.3277 39.5781 31.2969 39.5781C32.266 39.5781 33.0547 40.3668 33.0547 41.3359C33.0547 42.3051 32.266 43.0938 31.2969 43.0938Z" fill="white"/>
<path d="M39.207 25.5156H21.6289C21.1432 25.5156 20.75 25.9088 20.75 26.3945V47.4883C20.75 47.974 21.1432 48.3672 21.6289 48.3672H26.9023V44.2404C26.3493 43.4067 26.0234 42.4094 26.0234 41.3359C26.0234 38.428 28.3889 36.0625 31.2969 36.0625C34.2048 36.0625 36.5703 38.428 36.5703 41.3359C36.5703 42.4094 36.2444 43.4067 35.6914 44.2404V48.3672H39.207C39.693 48.3672 40.0859 47.974 40.0859 47.4883V26.3945C40.0859 25.9088 39.693 25.5156 39.207 25.5156ZM35.6914 34.3047H25.1445C24.6588 34.3047 24.2656 33.9115 24.2656 33.4258C24.2656 32.94 24.6588 32.5469 25.1445 32.5469H35.6914C36.1773 32.5469 36.5703 32.94 36.5703 33.4258C36.5703 33.9115 36.1773 34.3047 35.6914 34.3047ZM35.6914 30.7891H25.1445C24.6588 30.7891 24.2656 30.3959 24.2656 29.9102C24.2656 29.4244 24.6588 29.0313 25.1445 29.0313H35.6914C36.1773 29.0313 36.5703 29.4244 36.5703 29.9102C36.5703 30.3959 36.1773 30.7891 35.6914 30.7891Z" fill="white"/>
<path d="M28.6602 45.875V51.4906C28.6601 51.5827 28.6851 51.673 28.7323 51.7519C28.7796 51.8309 28.8474 51.8955 28.9286 51.9389C29.0097 51.9824 29.1011 52.0029 29.193 51.9985C29.2849 51.994 29.3739 51.9647 29.4505 51.9136L31.2969 50.6827L33.1433 51.9136C33.2199 51.9646 33.3088 51.9939 33.4007 51.9983C33.4926 52.0027 33.584 51.9822 33.6651 51.9388C33.7462 51.8954 33.8141 51.8308 33.8614 51.7519C33.9086 51.6729 33.9336 51.5826 33.9336 51.4906V45.875C33.1547 46.3291 32.2616 46.6084 31.2969 46.6084C30.3321 46.6084 29.439 46.3291 28.6602 45.875Z" fill="white"/>
</svg>
