<svg width="70" height="70" viewBox="0 0 70 70" fill="none" xmlns="http://www.w3.org/2000/svg">
<rect width="70" height="70" rx="35" fill="#E44233"/>
<path d="M33.5269 33.9887C33.683 33.8327 33.7689 33.6252 33.7689 33.4045C33.7689 33.1837 33.683 32.9762 33.5269 32.8202C33.3708 32.6641 33.1633 32.5781 32.9426 32.5781C32.7218 32.5781 32.5143 32.6641 32.3582 32.8202C32.2022 32.9762 32.1162 33.1837 32.1162 33.4045C32.1162 33.6252 32.2022 33.8327 32.3582 33.9887C32.5143 34.1448 32.7218 34.2308 32.9426 34.2308C33.1633 34.2308 33.3708 34.1448 33.5269 33.9887ZM32.3582 43.2991C32.5143 43.4551 32.7218 43.5411 32.9426 43.5411C33.1633 43.5411 33.3708 43.4552 33.5269 43.2991C33.849 42.9769 33.849 42.4527 33.5269 42.1304C33.2047 41.8082 32.6804 41.8083 32.3582 42.1305C32.0361 42.4527 32.0361 42.9769 32.3582 43.2991Z" fill="white"/>
<path d="M47.978 25.9334C47.9737 24.3321 46.6676 23.026 45.0664 23.0217L36.9111 23H36.9004C35.8214 23 34.7657 23.4371 34.0027 24.2001L20.7199 37.483C19.7614 38.4416 19.7614 40.0013 20.7199 40.96L30.0399 50.28C30.5043 50.7444 31.1217 51.0001 31.7784 51.0001C32.4351 51.0001 33.0524 50.7444 33.5168 50.28L46.7997 36.9971C47.5654 36.2315 48.0028 35.1715 47.9999 34.0888L47.978 25.9334ZM44.6807 28.7844C44.6807 30.1438 43.5748 31.2498 42.2154 31.2498C40.8559 31.2498 39.75 30.1438 39.75 28.7844C39.75 27.425 40.8559 26.319 42.2154 26.319C43.5748 26.319 44.6807 27.425 44.6807 28.7844ZM26.9606 38.8772C26.508 38.8772 26.141 38.5103 26.141 38.0577C26.141 37.6051 26.508 37.2382 26.9606 37.2382H38.9237C39.3763 37.2382 39.7432 37.6051 39.7432 38.0577C39.7432 38.5103 39.3763 38.8772 38.9237 38.8772H26.9606ZM34.6854 44.4562C34.2048 44.9368 33.5734 45.1771 32.9421 45.1771C32.3108 45.1771 31.6795 44.9368 31.1989 44.4562C30.2376 43.4949 30.2376 41.9309 31.1989 40.9696L31.1989 40.9696C32.1601 40.0084 33.7242 40.0084 34.6854 40.9696C35.6466 41.9308 35.6466 43.4949 34.6854 44.4562ZM30.4768 33.4025C30.4768 32.744 30.7332 32.1249 31.1988 31.6592C32.16 30.698 33.7242 30.698 34.6853 31.6592C35.151 32.1248 35.4074 32.744 35.4074 33.4025C35.4074 34.0611 35.151 34.6801 34.6853 35.1458C34.2048 35.6263 33.5733 35.8667 32.9421 35.8667C32.3107 35.8667 31.6795 35.6265 31.1988 35.1457C30.7332 34.6801 30.4768 34.0611 30.4768 33.4025Z" fill="white"/>
</svg>
