<svg width="70" height="70" viewBox="0 0 70 70" fill="none" xmlns="http://www.w3.org/2000/svg">
<rect width="70" height="70" rx="35" fill="#43C16D"/>
<path d="M29.8789 25.8681V25.165C29.8789 24.0261 30.8055 23.0996 31.9443 23.0996H38.0558C39.1946 23.0996 40.1211 24.0261 40.1211 25.165V25.8681H41.8789V25.165C41.8789 23.0568 40.1639 21.3418 38.0558 21.3418H31.9443C29.8361 21.3418 28.1211 23.0568 28.1211 25.165V25.8681H29.8789ZM46.8925 37.1547L38.2183 40.2261V40.5062C38.2183 42.2808 36.7746 43.7245 35 43.7245C33.2254 43.7245 31.7817 42.2808 31.7817 40.5062V40.2261L23.1074 37.1547C22.3411 36.8831 21.6258 36.4849 20.9912 35.9766V47.6601H49.0088V35.9765C48.3742 36.4848 47.6589 36.8831 46.8925 37.1547Z" fill="white"/>
<path d="M20 27.627V30.2719C20 32.6207 21.48 34.7147 23.6941 35.4988L31.7816 38.3624V35.9521H38.2183V38.3623L46.3058 35.4987C48.5199 34.7147 49.9999 32.6207 49.9999 30.2719V27.627H20Z" fill="white"/>
<path d="M36.4606 37.7087H33.5396V40.5061C33.5396 41.3114 34.1947 41.9666 35.0001 41.9666C35.8054 41.9666 36.4606 41.3114 36.4606 40.5061V37.7087Z" fill="white"/>
</svg>
