<svg width="70" height="70" viewBox="0 0 70 70" fill="none" xmlns="http://www.w3.org/2000/svg">
<rect width="70" height="70" rx="35" fill="#43C16D"/>
<path d="M38.1959 27.4622C39.6243 28.3578 40.626 29.8734 40.8083 31.6326C41.4073 31.9144 42.061 32.0607 42.7229 32.0613C45.2254 32.0613 47.2538 30.033 47.2538 27.5308C47.2538 25.0283 45.2254 23 42.7229 23C40.2443 23.0008 38.2337 24.9928 38.1959 27.4622ZM35.2277 36.739C37.7302 36.739 39.7585 34.7103 39.7585 32.2082C39.7585 29.7061 37.7298 27.6777 35.2277 27.6777C32.7255 27.6777 30.696 29.7064 30.696 32.2086C30.696 34.7107 32.7255 36.739 35.2277 36.739ZM37.1496 37.0479H33.305C30.1062 37.0479 27.5038 39.6506 27.5038 42.8494V47.5511L27.5157 47.6247L27.8396 47.7261C30.8923 48.6799 33.5444 48.998 35.7273 48.998C39.991 48.998 42.4623 47.7824 42.6146 47.7049L42.9172 47.5518H42.9496V42.8494C42.9508 39.6506 40.3484 37.0479 37.1496 37.0479ZM44.6456 32.3705H40.8307C40.7919 33.8436 40.1725 35.2416 39.1073 36.2598C41.9507 37.1053 44.031 39.742 44.031 42.8564V44.3052C47.7977 44.1672 49.9683 43.0996 50.1114 43.0279L50.414 42.8745H50.4464V38.1713C50.4464 34.9729 47.844 32.3705 44.6456 32.3705ZM27.2775 32.0621C28.1638 32.0621 28.9885 31.8034 29.6871 31.3627C29.9063 29.9449 30.6606 28.665 31.7948 27.7865C31.7995 27.7016 31.8076 27.6176 31.8076 27.532C31.8076 25.0295 29.7789 23.0012 27.2775 23.0012C24.7746 23.0012 22.7466 25.0295 22.7466 27.532C22.7466 30.0334 24.7746 32.0621 27.2775 32.0621ZM31.3464 36.2598C30.2872 35.2464 29.6687 33.8573 29.6243 32.3921C29.4828 32.3817 29.3428 32.3705 29.1986 32.3705H25.3544C22.1556 32.3705 19.5532 34.9729 19.5532 38.1713V42.8737L19.5652 42.9462L19.889 43.0484C22.338 43.8129 24.5236 44.1653 26.422 44.2763V42.8564C26.4227 39.742 28.5023 37.1061 31.3464 36.2598Z" fill="white"/>
</svg>
